# xmcd
#
# Track frame offsets: 
#        150
#        18232
#        41775
#        71120
#        90790
#        113355
#        146630
#        173592
#        190180
#        218997
#        242725
#        268485
#        290142
#        313630
#
# Disc length: 4475 seconds
#
# Revision: 1
# Processed by: cddbd v1.5.2PL0 Copyright (c) Steve Scherf et al.
# Submitted via: ExactAudioCopy v0.95a5
#
DISCID=cc11790e
DTITLE=Various Artist - Summertime Fizz
DYEAR=2000
DGENRE=Fusion
TTITLE0=Genai - Heaven On Earth
TTITLE1=Rhythm Logic - I.G.Y.
TTITLE2=Ralph MacDonald - San Juan Girl
TTITLE3=East Bounce - Kisses On The Wind
TTITLE4=Ricky Lawson - Sweet Love
TTITLE5=Richard Tee - That's The Way Of The World
TTITLE6=John Tropea - You Are My Heaven
TTITLE7=Patti Austin - A Candle
TTITLE8=Ralph MacDonald - Catch Of The Day
TTITLE9=Luis Conte - My Problem Is You
TTITLE10=Joe Sample - Fever
TTITLE11=John Tropea - Change The World
TTITLE12=Ralph MacDonald - Just The Two Of Us
TTITLE13=Chris Minn Doky - I Just Wanna Stop
EXTD=YEAR: 2000
EXTT0=
EXTT1=
EXTT2=
EXTT3=
EXTT4=
EXTT5=
EXTT6=
EXTT7=
EXTT8=
EXTT9=
EXTT10=
EXTT11=
EXTT12=
EXTT13=
PLAYORDER=
